<svg width="1041" height="654" viewBox="0 0 1041 654" fill="none" xmlns="http://www.w3.org/2000/svg">
<path d="M726.732 461.591C683.943 452.866 608.866 451.705 561.147 463.745C553.83 465.582 545.282 467.731 535.748 469.948C494.038 479.642 433.54 490.801 375.442 485.212C360.33 483.832 345.37 481.109 330.74 477.075C248.207 453.854 194.985 346.484 215.881 266.124C252.339 125.913 372.44 104.693 465.573 106.369C558.705 108.045 721.264 137.415 795.452 244.344C877.245 362.234 795.452 475.647 726.732 461.591Z" fill="#F4EAC8"/>
<path d="M704.801 170.727H551.477C550.016 170.727 548.615 171.307 547.582 172.341C546.549 173.374 545.969 174.775 545.969 176.237C545.969 177.698 546.549 179.1 547.582 180.133C548.615 181.167 550.016 181.747 551.477 181.747H704.801C706.262 181.747 707.663 181.167 708.696 180.133C709.729 179.1 710.309 177.698 710.309 176.237C710.309 174.775 709.729 173.374 708.696 172.341C707.663 171.307 706.262 170.727 704.801 170.727Z" fill="url(#paint0_linear_1306_582)"/>
<path d="M774.296 402.458C773.304 401.108 770.664 399.845 767.18 398.164C767.18 398.164 765.831 399.216 765.739 399.298C765.739 399.298 765.739 399.386 765.821 399.514L765.303 399.881L764.743 399.298L763.324 400.497C763.324 400.497 763.838 407.674 767.162 407.917C768.346 408.005 768.906 407.27 769.159 406.425C770.646 407.504 771.872 407.573 772.11 406.82C772.222 406.314 772.15 405.785 771.909 405.328C774.387 405.842 775.209 403.693 774.296 402.458Z" fill="url(#paint1_linear_1306_582)"/>
<path d="M576.809 412.745C592.297 413.581 610.912 411.73 610.912 411.73L615.259 419.73L593.775 421.245L576.809 412.745Z" fill="#D39E5F"/>
<path d="M599.015 271.154C592.037 271.154 586.363 264.266 586.363 255.822C586.363 249.967 589.177 244.539 593.534 242.004C594.53 241.452 595.361 240.645 595.943 239.665C596.524 238.686 596.835 237.569 596.843 236.43V202.642C596.843 202.459 596.916 202.284 597.045 202.155C597.174 202.026 597.349 201.953 597.532 201.953H600.511C600.694 201.953 600.869 202.026 600.998 202.155C601.127 202.284 601.2 202.459 601.2 202.642V236.43C601.208 237.569 601.519 238.686 602.101 239.665C602.682 240.645 603.514 241.452 604.51 242.004C608.866 244.539 611.68 249.967 611.68 255.822C611.666 264.276 605.992 271.154 599.015 271.154Z" fill="url(#paint2_linear_1306_582)"/>
<path d="M643.009 271.154C633.612 271.154 625.969 264.266 625.969 255.822V202.642C625.969 202.459 626.041 202.284 626.17 202.155C626.3 202.026 626.475 201.953 626.657 201.953H629.637C629.819 201.953 629.994 202.026 630.123 202.155C630.253 202.284 630.325 202.459 630.325 202.642V250.399C630.325 251.373 630.712 252.307 631.401 252.996C632.089 253.685 633.024 254.072 633.998 254.072H659.31C659.483 254.072 659.65 254.137 659.778 254.254C659.906 254.372 659.984 254.533 659.998 254.706C660.026 255.064 660.04 255.427 660.04 255.79C660.049 264.276 652.401 271.154 643.009 271.154Z" fill="url(#paint3_linear_1306_582)"/>
<path d="M695.644 243.905L691.14 239.46C690.33 238.657 689.687 237.702 689.246 236.649C688.806 235.596 688.578 234.467 688.574 233.326V202.642C688.574 202.459 688.502 202.284 688.373 202.155C688.244 202.026 688.068 201.953 687.886 201.953H684.907C684.724 201.953 684.549 202.026 684.42 202.155C684.291 202.284 684.218 202.459 684.218 202.642V233.326C684.215 234.467 683.986 235.596 683.546 236.649C683.106 237.702 682.462 238.657 681.652 239.46L677.149 243.905C676.287 244.76 675.603 245.777 675.135 246.896C674.667 248.016 674.425 249.217 674.422 250.431V266.126C674.422 266.309 674.494 266.484 674.624 266.613C674.753 266.742 674.928 266.815 675.11 266.815H697.673C697.855 266.815 698.031 266.742 698.16 266.613C698.289 266.484 698.361 266.309 698.361 266.126V250.431C698.36 249.218 698.119 248.017 697.652 246.897C697.186 245.778 696.504 244.761 695.644 243.905Z" fill="url(#paint4_linear_1306_582)"/>
<path d="M599.016 171.91C597.584 171.911 596.212 172.481 595.2 173.493C594.188 174.506 593.618 175.878 593.617 177.31V203.889C593.617 204.071 593.69 204.247 593.819 204.376C593.948 204.505 594.123 204.578 594.306 204.578H603.726C603.908 204.578 604.083 204.505 604.212 204.376C604.342 204.247 604.414 204.071 604.414 203.889V177.31C604.413 175.878 603.844 174.506 602.832 173.493C601.819 172.481 600.447 171.911 599.016 171.91Z" fill="url(#paint5_linear_1306_582)"/>
<path d="M686.398 171.91C684.967 171.911 683.595 172.481 682.583 173.493C681.57 174.506 681.001 175.878 681 177.31V203.889C681 204.071 681.073 204.247 681.202 204.376C681.331 204.505 681.506 204.578 681.689 204.578H691.108C691.291 204.578 691.466 204.505 691.595 204.376C691.724 204.247 691.797 204.071 691.797 203.889V177.31C691.796 175.878 691.227 174.506 690.214 173.493C689.202 172.481 687.83 171.911 686.398 171.91Z" fill="url(#paint6_linear_1306_582)"/>
<path d="M628.145 171.91C626.713 171.911 625.341 172.481 624.329 173.493C623.316 174.506 622.747 175.878 622.746 177.31V203.889C622.746 204.071 622.819 204.247 622.948 204.376C623.077 204.505 623.252 204.578 623.435 204.578H632.854C633.037 204.578 633.212 204.505 633.341 204.376C633.47 204.247 633.543 204.071 633.543 203.889V177.31C633.542 175.878 632.973 174.506 631.96 173.493C630.948 172.481 629.576 171.911 628.145 171.91Z" fill="url(#paint7_linear_1306_582)"/>
<path d="M510.669 121.348C510.669 121.348 507.823 144.703 505.973 153.676C500.753 178.982 494.795 189.066 488.107 194.976C481.418 200.886 472.728 200.459 472.728 200.459C472.728 200.459 470.626 203.83 467.853 208.288C462.505 216.885 454.646 229.517 454.504 229.797C454.293 230.224 413.648 198.466 413.648 198.466C420.699 178.528 423.408 158.658 423.408 158.658C413.143 153.313 414.47 142.361 422.65 140.635C422.297 132.861 422.667 125.072 423.757 117.367L437.019 117.973L510.669 121.348Z" fill="#F2BA70"/>
<path d="M440.498 153.112C439.318 149.167 431.041 139.409 422.645 140.631C422.292 132.857 422.662 125.068 423.752 117.363L437.018 117.974C445.474 122.662 454.205 127.489 454.205 127.489C454.687 145.131 440.498 153.112 440.498 153.112Z" fill="url(#paint8_linear_1306_582)"/>
<path d="M524.165 63.1585L514.364 108.987L509.089 133.705C509.089 133.705 502.539 137.503 479.577 136.332C456.615 135.161 432.607 126.803 423.766 117.367C424.093 114.841 424.421 112.36 424.748 109.923C424.987 108.129 425.228 106.36 425.473 104.615C425.694 103.02 425.914 101.45 426.134 99.9036C426.199 99.4444 426.258 99.0357 426.323 98.6086C426.687 96.0647 427.049 93.5865 427.41 91.1742C428.274 85.3929 429.118 80.0157 429.917 75.1023C430.036 74.3676 430.156 73.6466 430.27 72.9349C430.385 72.2231 430.504 71.5205 430.619 70.8317C430.734 70.1429 430.849 69.4541 430.959 68.7975L431.455 65.8632C431.588 65.0918 431.716 64.3387 431.845 63.6039C431.918 63.1769 431.992 62.7498 432.065 62.332C432.065 62.2815 432.065 62.2355 432.065 62.1896C432.13 61.8177 432.194 61.4549 432.258 61.0921C432.472 59.8676 432.679 58.6997 432.878 57.5885L433.016 56.8216C433.084 56.4405 433.149 56.0639 433.217 55.6965C433.585 53.6623 433.92 51.8439 434.214 50.2551C434.26 50.0209 434.301 49.7959 434.347 49.5663C434.393 49.3367 434.448 49.0152 434.498 48.7489C434.868 46.7979 435.843 45.0129 437.284 43.6471C438.725 42.2813 440.56 41.4042 442.527 41.14C463.9 38.2149 501.286 43.0456 519.427 52.8587C521.224 53.8326 522.656 55.3626 523.511 57.2195C524.365 59.0764 524.594 61.1602 524.165 63.1585Z" fill="url(#paint9_linear_1306_582)"/>
<path d="M472.727 200.457C472.727 200.457 470.624 203.828 467.852 208.287C449.03 206.266 444.536 190.378 443.393 185.86C442.071 180.652 442.787 168.516 442.787 168.516C448.167 193.216 461.205 200.104 472.727 200.457Z" fill="#D39E5F"/>
<path d="M574.995 405.349C563.73 425.77 545.712 433.36 539.937 433.236C534.162 433.112 533.051 428.309 533.051 428.309C533.777 438.807 534.888 455.861 535.764 469.945C494.055 479.638 433.557 490.797 375.459 485.209C376.432 475.157 378.177 467.052 378.603 459.994C378.87 455.632 378.815 447.504 378.645 439.087C378.36 425.223 377.759 410.561 377.759 410.561L366.98 408.362L366.691 408.302L358.626 406.658C346.35 420.535 327.943 432.442 315.608 420.958C303.672 409.845 286.688 390.577 282.923 380.181C279.159 369.784 281.087 350.741 284.507 343.84C287.927 336.938 317.596 277.224 330.316 252.918C341.333 231.86 352.35 223.87 358.52 220.71C359.466 220.224 360.292 219.852 360.99 219.567C366.227 217.404 400.9 209.341 401.313 209.088C403.58 197.42 404.14 194.118 405.302 190.21C406.321 186.789 411.669 184.966 418.059 184.172C417.875 184.861 417.683 185.549 417.485 186.257C416.833 188.594 416.108 190.991 415.346 193.42C420.395 194.922 443.141 201.103 446.561 204.978C449.665 208.477 449.61 214.451 449.61 214.451H460.498C459.993 198.494 472.732 200.432 472.732 200.432L473.489 210.691C473.489 210.691 496.86 213.088 505.591 218.295C514.322 223.502 525.583 238.298 532.06 265.335C538.537 292.373 545.152 334.063 552.051 351.247C558.951 368.43 570.918 372.09 575.004 380.961C579.09 389.833 574.995 405.349 574.995 405.349Z" fill="url(#paint10_linear_1306_582)"/>
<path d="M366.675 408.303L358.61 406.659C346.335 420.536 327.927 432.443 315.592 420.958C303.657 409.846 286.672 390.578 282.908 380.181C279.144 369.785 281.072 350.742 284.491 343.84C287.911 336.939 317.58 277.224 330.3 252.919C341.317 231.86 352.335 223.87 358.504 220.711C371.78 229.33 384.982 243.946 386.506 268.256C388.581 301.374 375.751 367.03 366.675 408.303Z" fill="url(#paint11_linear_1306_582)"/>
<path d="M412.743 214.672H412.61C412.266 214.608 404.182 213.024 400.808 209.621C400.687 209.49 400.621 209.317 400.625 209.138C400.629 208.96 400.702 208.79 400.829 208.664C400.956 208.539 401.126 208.467 401.305 208.465C401.483 208.463 401.656 208.53 401.786 208.652C404.861 211.761 412.803 213.313 412.867 213.327C412.957 213.335 413.045 213.361 413.126 213.404C413.206 213.446 413.277 213.504 413.335 213.574C413.393 213.644 413.437 213.725 413.464 213.811C413.49 213.898 413.5 213.989 413.491 214.08C413.483 214.17 413.457 214.258 413.414 214.339C413.372 214.419 413.314 214.49 413.244 214.548C413.174 214.606 413.094 214.65 413.007 214.676C412.92 214.703 412.829 214.713 412.738 214.704L412.743 214.672Z" fill="#C5E0E2"/>
<path d="M574.994 405.355C563.729 425.776 545.712 433.366 539.937 433.242C534.529 433.109 533.198 428.894 533.051 428.37V428.315C533.776 438.812 534.887 455.867 535.764 469.95C514.395 474.914 488.091 480.269 459.708 483.552C459.052 409.727 439.785 350.196 437.885 341.586C426.969 292.209 423.485 250.463 421.538 236.774C419.592 223.085 419.5 214.48 419.5 214.48H460.493C459.988 198.523 472.727 200.461 472.727 200.461L473.484 210.719C473.484 210.719 488.491 212.258 498.948 215.55C501.256 216.22 503.482 217.144 505.586 218.305C514.308 223.517 525.578 238.308 532.055 265.345C538.532 292.383 545.147 334.074 552.046 351.257C558.946 368.44 570.913 372.1 574.999 380.972C579.085 389.843 574.994 405.355 574.994 405.355Z" fill="url(#paint12_linear_1306_582)"/>
<path d="M459.693 484.24C459.511 484.24 459.337 484.168 459.208 484.04C459.079 483.912 459.006 483.738 459.004 483.556C459.004 483.124 459.004 482.694 459.004 482.265C458.252 418.896 443.612 365.363 438.806 347.775C438.03 344.938 437.47 342.889 437.213 341.732C428.546 302.558 424.493 267.59 422.326 248.804C421.739 243.716 421.27 239.698 420.871 236.865C418.943 223.273 418.828 214.566 418.828 214.479C418.827 214.388 418.844 214.297 418.878 214.213C418.912 214.128 418.963 214.051 419.027 213.986C419.091 213.921 419.167 213.87 419.251 213.835C419.335 213.799 419.426 213.781 419.517 213.781H467.506C467.689 213.781 467.864 213.854 467.993 213.983C468.122 214.112 468.195 214.287 468.195 214.47C468.195 214.653 468.122 214.828 467.993 214.957C467.864 215.086 467.689 215.159 467.506 215.159H420.224C420.507 222.365 421.174 229.551 422.221 236.686C422.625 239.538 423.093 243.574 423.68 248.657C425.856 267.416 429.905 302.338 438.54 341.443C438.788 342.563 439.343 344.602 440.114 347.413C444.934 365.041 459.61 418.685 460.368 482.247C460.368 482.679 460.368 483.11 460.368 483.542C460.368 483.632 460.351 483.722 460.317 483.806C460.283 483.89 460.233 483.966 460.169 484.03C460.106 484.095 460.03 484.146 459.947 484.181C459.864 484.216 459.774 484.235 459.684 484.235L459.693 484.24Z" fill="#C5E0E2"/>
<path d="M433.127 230.83C435.016 230.83 436.547 229.299 436.547 227.409C436.547 225.52 435.016 223.988 433.127 223.988C431.238 223.988 429.707 225.52 429.707 227.409C429.707 229.299 431.238 230.83 433.127 230.83Z" fill="#308B85"/>
<path d="M476.064 229.186C477.953 229.186 479.484 227.654 479.484 225.765C479.484 223.875 477.953 222.344 476.064 222.344C474.176 222.344 472.645 223.875 472.645 225.765C472.645 227.654 474.176 229.186 476.064 229.186Z" fill="#308B85"/>
<path d="M441.838 275.119C443.727 275.119 445.258 273.588 445.258 271.698C445.258 269.809 443.727 268.277 441.838 268.277C439.949 268.277 438.418 269.809 438.418 271.698C438.418 273.588 439.949 275.119 441.838 275.119Z" fill="#308B85"/>
<path d="M483.854 273.479C485.742 273.479 487.273 271.947 487.273 270.058C487.273 268.168 485.742 266.637 483.854 266.637C481.965 266.637 480.434 268.168 480.434 270.058C480.434 271.947 481.965 273.479 483.854 273.479Z" fill="#308B85"/>
<path d="M453.279 328.666C455.168 328.666 456.699 327.135 456.699 325.245C456.699 323.356 455.168 321.824 453.279 321.824C451.391 321.824 449.859 323.356 449.859 325.245C449.859 327.135 451.391 328.666 453.279 328.666Z" fill="#308B85"/>
<path d="M493.076 324.256C494.965 324.256 496.496 322.724 496.496 320.835C496.496 318.946 494.965 317.414 493.076 317.414C491.187 317.414 489.656 318.946 489.656 320.835C489.656 322.724 491.187 324.256 493.076 324.256Z" fill="#308B85"/>
<path d="M468.084 380.401C469.973 380.401 471.504 378.869 471.504 376.98C471.504 375.09 469.973 373.559 468.084 373.559C466.195 373.559 464.664 375.09 464.664 376.98C464.664 378.869 466.195 380.401 468.084 380.401Z" fill="#308B85"/>
<path d="M504.209 375.991C506.098 375.991 507.629 374.459 507.629 372.569C507.629 370.68 506.098 369.148 504.209 369.148C502.32 369.148 500.789 370.68 500.789 372.569C500.789 374.459 502.32 375.991 504.209 375.991Z" fill="#308B85"/>
<path d="M477.053 439.998C478.941 439.998 480.473 438.467 480.473 436.577C480.473 434.688 478.941 433.156 477.053 433.156C475.164 433.156 473.633 434.688 473.633 436.577C473.633 438.467 475.164 439.998 477.053 439.998Z" fill="#308B85"/>
<path d="M515.908 435.588C517.797 435.588 519.328 434.056 519.328 432.167C519.328 430.278 517.797 428.746 515.908 428.746C514.019 428.746 512.488 430.278 512.488 432.167C512.488 434.056 514.019 435.588 515.908 435.588Z" fill="#308B85"/>
<path d="M574.994 405.352C563.729 425.773 545.711 433.363 539.936 433.239C534.528 433.106 533.197 428.89 533.05 428.367V428.312C529.295 391.714 523.897 371.679 519.049 347.599C514.201 323.518 509.51 297.39 506.283 281.387C503.056 265.384 501.582 261.696 502.174 251.585C503.092 235.862 501.821 222.848 498.961 215.547C501.269 216.217 503.495 217.141 505.599 218.302C514.321 223.514 525.591 238.305 532.068 265.342C538.545 292.38 545.16 334.071 552.059 351.254C558.959 368.437 570.926 372.097 575.012 380.968C579.098 389.84 574.994 405.352 574.994 405.352Z" fill="url(#paint13_linear_1306_582)"/>
<path d="M581.082 402.456C580.43 408.145 567.567 413.086 567.567 413.086C566.548 414.243 565.501 415.382 564.441 416.452C552.63 428.534 538.964 435.582 535.98 428.299C534.194 423.96 536.329 417.233 539.854 410.648C540.658 409.137 541.543 407.631 542.462 406.166C544.72 402.58 547.257 399.177 550.05 395.99C558.235 386.774 567.953 381.296 572.704 382.875C573.09 383.015 573.451 383.215 573.773 383.468C577.584 386.384 581.678 397.285 581.082 402.456Z" fill="url(#paint14_linear_1306_582)"/>
<path d="M623.971 424.398C623.554 427.291 617.93 430.198 614.565 422.359C612.472 417.487 611.169 413.423 611.169 413.423C611.169 413.423 596.02 415.232 582.648 414.218C566.581 414.952 568.633 418.626 565.699 417.092C565.438 416.954 565.011 416.743 564.442 416.468C561.83 415.2 556.316 412.62 551.042 410.167L542.453 406.182C544.711 402.595 547.248 399.193 550.041 396.006C558.226 386.79 567.944 381.311 572.695 382.891L573.765 383.483C578.319 386.014 584.397 389.453 588.455 391.781L592.852 394.293C593.174 394.5 594.436 394.775 596.171 395.074C600.546 395.827 607.914 396.75 610.631 397.227C614.428 397.893 618.091 398.825 619.757 405.493C621.424 412.16 624.527 420.532 623.971 424.398Z" fill="#F2BA70"/>
<path d="M670.991 446.537L642.962 441.307C624.177 437.817 602.065 433.717 597.442 432.931C589.106 431.517 563.041 428.454 559.148 424.285C554.783 419.61 563.684 411.739 573.434 412.46C577.271 412.745 594.55 415.597 613.1 418.779C613.527 419.881 614.019 421.075 614.565 422.365C617.93 430.204 623.553 427.297 623.971 424.404C624.088 423.139 624.017 421.864 623.76 420.62C633.661 422.338 643.283 424.028 650.807 425.355C659.712 426.93 665.671 427.995 665.671 427.995L670.991 446.537Z" fill="url(#paint15_linear_1306_582)"/>
<path d="M533.038 428.999C532.868 428.999 532.703 428.935 532.577 428.821C532.451 428.706 532.371 428.549 532.354 428.379C529.407 399.693 525.413 381.004 521.548 362.93C520.497 358.007 519.409 352.924 518.367 347.739C515.727 334.616 513.106 320.748 510.793 308.51C508.878 298.376 507.065 288.801 505.601 281.523C505.238 279.732 504.908 278.097 504.6 276.591C502.167 264.652 501.345 260.648 501.479 251.574C501.481 251.393 501.555 251.22 501.683 251.093C501.812 250.966 501.986 250.895 502.167 250.895C502.258 250.896 502.347 250.915 502.43 250.95C502.513 250.986 502.588 251.038 502.651 251.103C502.714 251.168 502.764 251.244 502.798 251.328C502.831 251.412 502.848 251.502 502.847 251.593C502.718 260.515 503.53 264.496 505.941 276.316C506.248 277.827 506.583 279.461 506.941 281.252C508.41 288.54 510.223 298.114 512.138 308.253C514.433 320.486 517.073 334.349 519.712 347.469C520.754 352.644 521.842 357.727 522.893 362.622C526.768 380.733 530.771 399.459 533.722 428.219C533.732 428.309 533.723 428.4 533.698 428.487C533.672 428.574 533.629 428.655 533.572 428.725C533.515 428.796 533.444 428.854 533.365 428.897C533.285 428.94 533.197 428.967 533.107 428.976L533.038 428.999Z" fill="#C5E0E2"/>
<path d="M529.375 280.699C529.375 280.699 506.84 306.708 503.375 316.852C498.807 330.215 505.45 336.111 505.321 339.073C505.211 341.676 484.517 363.213 465.576 382.839C455.541 393.235 446.002 403.089 440.273 409.316L452.668 420.277C452.668 420.277 462.84 407.098 474.734 391.747C491.095 370.624 510.719 345.414 511.596 344.753C513.116 343.614 523.674 350.768 535.467 341.956C548.44 332.249 560.04 313.89 564.594 307.186L529.375 280.699ZM518.161 315.525C517.696 315.525 517.246 315.363 516.889 315.066C516.477 314.727 516.216 314.24 516.164 313.709C516.111 313.179 516.272 312.649 516.609 312.237L526.598 300.054C526.936 299.643 527.423 299.382 527.953 299.33C528.483 299.278 529.012 299.439 529.424 299.777C529.835 300.115 530.095 300.602 530.148 301.132C530.2 301.662 530.039 302.191 529.701 302.603L519.712 314.776C519.526 315.009 519.29 315.197 519.022 315.327C518.753 315.457 518.459 315.524 518.161 315.525ZM523.275 325.489C522.894 325.491 522.521 325.385 522.198 325.182C521.876 324.979 521.619 324.688 521.456 324.344C521.293 324 521.231 323.616 521.279 323.238C521.326 322.861 521.48 322.504 521.723 322.211L537.367 303.145C537.534 302.941 537.74 302.772 537.972 302.648C538.204 302.523 538.459 302.446 538.721 302.42C538.983 302.394 539.248 302.42 539.5 302.496C539.752 302.572 539.987 302.698 540.191 302.865C540.394 303.032 540.563 303.237 540.688 303.47C540.812 303.702 540.889 303.957 540.915 304.219C540.941 304.481 540.915 304.746 540.839 304.998C540.763 305.25 540.638 305.485 540.471 305.689L524.826 324.759C524.638 324.988 524.401 325.173 524.132 325.299C523.864 325.425 523.571 325.49 523.275 325.489ZM535.595 327.831C535.258 328.243 534.77 328.504 534.24 328.556C533.71 328.608 533.181 328.447 532.77 328.109C532.358 327.771 532.098 327.284 532.046 326.754C531.994 326.223 532.154 325.694 532.492 325.283L542.481 313.109C542.819 312.698 543.307 312.437 543.836 312.385C544.366 312.333 544.895 312.494 545.307 312.832C545.718 313.17 545.979 313.657 546.031 314.187C546.083 314.717 545.922 315.246 545.584 315.658L535.595 327.831Z" fill="url(#paint16_linear_1306_582)"/>
<path d="M524.165 63.1604L514.364 108.988L513.735 109.076L513.336 109.126L512.748 109.2L512.289 109.255L511.738 109.314L510.288 109.457C508.507 109.617 506.537 109.732 504.384 109.787H503.613C496.02 109.925 486.201 109.268 474.087 106.885L472.535 106.578L470.121 106.086L468.537 105.756L467.261 105.485L466.343 105.283C465.119 105.016 463.911 104.747 462.721 104.474L461.064 104.089L460.113 103.859L459.264 103.652L457.726 103.271C455.472 102.697 453.324 102.114 451.268 101.513L449.936 101.118L449.698 101.044L448.458 100.659L448.311 100.613L446.879 100.153C446.053 99.8825 445.245 99.6024 444.451 99.3222L443.45 98.9595C442.743 98.7069 442.073 98.4406 441.366 98.1788L440.163 97.7196L439.043 97.2604C437.715 96.7002 436.428 96.1201 435.182 95.5201C434.916 95.3961 434.65 95.2629 434.388 95.1344L433.801 94.8359C433.057 94.4593 432.326 94.0736 431.606 93.6787L430.849 93.2562C429.683 92.595 428.554 91.9108 427.434 91.1944C428.297 85.4131 429.141 80.0359 429.94 75.1225C430.059 74.3878 430.179 73.6668 430.293 72.9551C430.408 72.2433 430.528 71.5407 430.642 70.8519C430.757 70.1631 430.872 69.4744 430.982 68.8177L431.478 65.8834C431.611 65.1166 431.74 64.3635 431.868 63.6242C431.941 63.1971 432.015 62.7701 432.088 62.3522C432.088 62.3017 432.088 62.2558 432.088 62.2098C432.157 61.8379 432.217 61.4705 432.281 61.1124C432.495 59.8878 432.702 58.7199 432.901 57.6087L433.039 56.8418C433.107 56.4607 433.172 56.0841 433.241 55.7168C433.608 53.6825 433.943 51.8641 434.237 50.2753C434.283 50.0411 434.324 49.8161 434.37 49.5865C434.416 49.3569 434.471 49.0354 434.521 48.7691C434.817 47.1985 435.506 45.7287 436.524 44.4968C437.542 43.265 438.856 42.3113 440.342 41.725C441.044 41.45 441.776 41.2589 442.523 41.1556C463.896 38.2305 501.281 43.0613 519.423 52.8743C521.221 53.8477 522.655 55.3769 523.513 57.2333C524.37 59.0898 524.603 61.1739 524.179 63.1742L524.165 63.1604Z" fill="url(#paint17_linear_1306_582)"/>
<path d="M443.229 99.5864H443.179C442.997 99.5735 442.827 99.4888 442.708 99.3511C442.588 99.2133 442.528 99.0337 442.541 98.8517C443.785 80.8327 448.192 58.332 448.238 58.107C448.251 58.0148 448.283 57.9264 448.332 57.8471C448.381 57.7677 448.446 57.6991 448.522 57.6454C448.598 57.5917 448.684 57.554 448.775 57.5346C448.866 57.5152 448.96 57.5145 449.052 57.5326C449.143 57.5506 449.23 57.587 449.307 57.6396C449.384 57.6921 449.449 57.7598 449.499 57.8384C449.549 57.917 449.583 58.0049 449.598 58.0969C449.613 58.1888 449.609 58.2829 449.587 58.3734C449.541 58.5984 445.153 81.0118 443.913 98.9435C443.902 99.1173 443.825 99.2803 443.698 99.3996C443.571 99.5189 443.403 99.5856 443.229 99.5864Z" fill="#C5E0E2"/>
<path d="M461.648 104.937H461.579C461.398 104.918 461.232 104.829 461.116 104.688C461.001 104.546 460.946 104.365 460.964 104.184C461.644 97.3832 463.925 74.1799 464.852 61.1892C464.865 61.0065 464.95 60.8364 465.088 60.7162C465.226 60.5961 465.407 60.5358 465.589 60.5486C465.772 60.5613 465.942 60.6462 466.062 60.7844C466.182 60.9226 466.242 61.1029 466.23 61.2856C465.312 74.2947 463.016 97.5117 462.341 104.317C462.324 104.488 462.244 104.647 462.115 104.762C461.987 104.876 461.82 104.939 461.648 104.937Z" fill="#C5E0E2"/>
<path d="M478.036 108.319H477.926C477.746 108.29 477.584 108.19 477.478 108.042C477.371 107.894 477.327 107.71 477.356 107.53C478.275 101.67 480.57 85.4881 481.424 61.8945C481.427 61.804 481.448 61.7151 481.486 61.6328C481.523 61.5505 481.577 61.4764 481.643 61.4148C481.71 61.3532 481.787 61.3052 481.872 61.2737C481.957 61.2421 482.047 61.2276 482.138 61.2309C482.228 61.2342 482.317 61.2553 482.399 61.293C482.481 61.3307 482.555 61.3842 482.617 61.4505C482.679 61.5168 482.727 61.5946 482.758 61.6795C482.79 61.7643 482.804 61.8545 482.801 61.945C481.942 85.6167 479.656 101.863 478.715 107.745C478.688 107.906 478.605 108.052 478.481 108.157C478.356 108.262 478.199 108.32 478.036 108.319Z" fill="#C5E0E2"/>
<path d="M492.667 110.156C492.618 110.161 492.569 110.161 492.52 110.156C492.432 110.137 492.348 110.1 492.274 110.048C492.2 109.996 492.137 109.93 492.088 109.854C492.04 109.777 492.007 109.692 491.991 109.603C491.975 109.514 491.977 109.422 491.997 109.334C493.553 102.244 496.486 87.1595 498.681 65.8205C498.69 65.7301 498.717 65.6423 498.76 65.5623C498.804 65.4823 498.862 65.4117 498.933 65.3543C499.003 65.297 499.084 65.2541 499.171 65.2281C499.259 65.2021 499.35 65.1935 499.44 65.2029C499.531 65.2122 499.619 65.2393 499.698 65.2826C499.778 65.3258 499.849 65.3844 499.906 65.455C499.964 65.5255 500.007 65.6067 500.033 65.6939C500.059 65.781 500.067 65.8724 500.058 65.9629C497.859 87.3707 494.907 102.51 493.346 109.633C493.309 109.784 493.222 109.918 493.098 110.013C492.975 110.108 492.823 110.159 492.667 110.156Z" fill="#C5E0E2"/>
<path d="M507.849 110.326C507.747 110.326 507.646 110.304 507.554 110.26C507.461 110.216 507.38 110.152 507.315 110.073C507.251 109.994 507.205 109.901 507.18 109.802C507.156 109.703 507.154 109.6 507.174 109.5C508.868 101.234 511.306 87.5362 513.169 69.2463C513.188 69.0636 513.279 68.8959 513.421 68.7801C513.564 68.6643 513.746 68.6098 513.929 68.6287C514.112 68.6475 514.279 68.7382 514.395 68.8807C514.511 69.0233 514.565 69.206 514.546 69.3886C512.66 87.7566 510.231 101.477 508.533 109.798C508.496 109.951 508.408 110.087 508.284 110.183C508.16 110.279 508.006 110.329 507.849 110.326Z" fill="#C5E0E2"/>
<path d="M481.734 154.191C482.238 152.268 481.6 150.434 480.307 150.095C479.015 149.756 477.558 151.04 477.054 152.963C476.55 154.886 477.188 156.72 478.481 157.059C479.773 157.399 481.23 156.114 481.734 154.191Z" fill="#654B1E"/>
<path d="M503.809 152.627C504.267 150.881 503.688 149.215 502.516 148.908C501.343 148.6 500.022 149.767 499.564 151.513C499.106 153.26 499.685 154.925 500.857 155.233C502.029 155.54 503.351 154.374 503.809 152.627Z" fill="#654B1E"/>
<path d="M464.15 147.414C463.959 147.414 463.772 147.355 463.616 147.244C463.46 147.132 463.343 146.975 463.28 146.794C463.218 146.613 463.214 146.417 463.269 146.233C463.324 146.049 463.434 145.888 463.586 145.77C472.67 138.657 485.097 139.856 488.374 143.203C488.545 143.377 488.639 143.612 488.637 143.856C488.634 144.099 488.535 144.332 488.361 144.503C488.187 144.673 487.952 144.767 487.708 144.765C487.465 144.762 487.232 144.663 487.062 144.489C484.702 142.078 473.235 140.549 464.72 147.217C464.557 147.344 464.357 147.414 464.15 147.414Z" fill="#654B1E"/>
<path d="M498.368 143.816C498.175 143.817 497.986 143.757 497.829 143.645C497.672 143.532 497.555 143.373 497.493 143.19C497.432 143.007 497.429 142.809 497.487 142.625C497.544 142.44 497.658 142.279 497.813 142.163C501.453 139.408 504.974 138.572 506.328 138.489C506.571 138.478 506.809 138.565 506.989 138.729C507.169 138.893 507.276 139.123 507.287 139.366C507.298 139.61 507.212 139.848 507.048 140.028C506.883 140.208 506.654 140.315 506.411 140.326C505.066 140.386 501.962 141.313 498.919 143.609C498.763 143.737 498.569 143.809 498.368 143.816Z" fill="#654B1E"/>
<path d="M494.476 172.107C492.486 172.053 490.582 171.282 489.115 169.935C489.047 169.875 488.992 169.802 488.952 169.72C488.912 169.639 488.889 169.55 488.884 169.459C488.879 169.369 488.891 169.278 488.921 169.192C488.951 169.107 488.997 169.027 489.057 168.96C489.118 168.892 489.191 168.836 489.272 168.797C489.354 168.757 489.443 168.734 489.533 168.729C489.624 168.724 489.715 168.736 489.8 168.766C489.886 168.796 489.965 168.842 490.033 168.902C491.961 170.606 494.509 171.198 496.368 170.34C497.97 169.614 498.856 167.965 498.851 165.688C498.851 162.473 497.671 160.177 496.634 158.129C495.927 156.752 495.316 155.544 495.197 154.295C495.189 154.205 495.198 154.113 495.225 154.027C495.252 153.94 495.295 153.859 495.353 153.789C495.47 153.648 495.639 153.559 495.821 153.542C496.004 153.525 496.186 153.581 496.327 153.698C496.468 153.815 496.557 153.984 496.574 154.167C496.666 155.154 497.226 156.242 497.869 157.505C498.925 159.571 500.238 162.147 500.238 165.692C500.238 168.498 499.035 170.652 496.942 171.598C496.166 171.942 495.325 172.116 494.476 172.107Z" fill="#BB8A52"/>
<path d="M485.175 181.98C482.512 181.98 477.449 181.347 474.29 176.957C474.22 176.859 474.169 176.748 474.142 176.63C474.114 176.513 474.11 176.391 474.129 176.272C474.149 176.153 474.191 176.038 474.255 175.936C474.318 175.833 474.401 175.744 474.499 175.673C474.597 175.603 474.708 175.552 474.826 175.524C474.943 175.497 475.065 175.493 475.184 175.512C475.303 175.531 475.417 175.574 475.52 175.638C475.623 175.701 475.712 175.784 475.782 175.882C479.184 180.612 485.321 180.203 486.515 180.075C486.758 180.049 487.002 180.12 487.193 180.274C487.384 180.428 487.506 180.651 487.532 180.894C487.558 181.138 487.486 181.382 487.333 181.573C487.179 181.763 486.956 181.885 486.712 181.911C486.201 181.962 485.688 181.985 485.175 181.98Z" fill="#BB8A52"/>
<path d="M436.626 156.207C436.505 156.207 436.386 156.175 436.281 156.115C436.176 156.054 436.089 155.967 436.029 155.862C431.333 147.716 424.553 146.481 421.987 147.138C421.899 147.161 421.808 147.167 421.718 147.155C421.629 147.143 421.542 147.113 421.464 147.068C421.386 147.022 421.317 146.962 421.262 146.89C421.208 146.818 421.167 146.736 421.144 146.649C421.121 146.561 421.115 146.47 421.127 146.38C421.139 146.291 421.169 146.204 421.214 146.126C421.26 146.048 421.32 145.979 421.392 145.924C421.464 145.869 421.546 145.829 421.633 145.806C425.053 144.888 432.311 146.628 437.241 155.151C437.301 155.255 437.333 155.374 437.333 155.495C437.333 155.616 437.301 155.735 437.241 155.84C437.18 155.944 437.093 156.031 436.988 156.092C436.884 156.152 436.765 156.184 436.644 156.184L436.626 156.207Z" fill="#BB8A52"/>
<path d="M429.295 156.523C428.54 156.559 427.788 156.406 427.108 156.076C426.428 155.746 425.842 155.251 425.402 154.636C424.87 153.835 424.595 152.89 424.614 151.928C424.633 150.967 424.945 150.034 425.508 149.254C426.637 147.757 428.519 147.307 430.668 148.028C430.841 148.089 430.982 148.216 431.061 148.381C431.141 148.547 431.151 148.737 431.09 148.91C431.029 149.083 430.902 149.224 430.737 149.304C430.572 149.383 430.382 149.393 430.209 149.332C428.639 148.804 427.349 149.07 426.587 150.081C426.198 150.63 425.984 151.284 425.972 151.957C425.959 152.63 426.15 153.292 426.518 153.855C427.376 155.109 429.015 155.462 431.136 154.856C431.307 154.819 431.486 154.848 431.637 154.938C431.788 155.028 431.898 155.172 431.946 155.34C431.994 155.509 431.976 155.69 431.895 155.846C431.815 156.001 431.678 156.121 431.512 156.179C430.793 156.395 430.047 156.511 429.295 156.523Z" fill="#BB8A52"/>
<path d="M417.471 186.285C416.819 188.622 416.094 191.02 415.332 193.449C405.48 191.869 407.092 186.864 417.471 186.285Z" fill="url(#paint18_linear_1306_582)"/>
<path d="M358.242 402.833C343.902 417.316 328.046 428.213 320.325 420.49C312.603 412.766 320.876 392.079 333.146 377.871C345.416 363.664 359.206 360.628 364.169 363.939L358.242 402.833Z" fill="url(#paint19_linear_1306_582)"/>
<path d="M378.852 374.542C375.638 372.246 372.645 370.064 370.194 368.297C372.82 364.646 369.997 358.993 365.145 352.174C377.42 320.489 385.37 303.596 386.789 288.121C387.341 282.328 387.341 276.496 386.789 270.703C388.166 272.232 390.769 277.467 391.26 288.612C391.701 298.466 380.316 347.238 378.852 374.542Z" fill="url(#paint20_linear_1306_582)"/>
<path d="M464.883 430.567C463.189 433.722 460.223 434.149 451.607 429.35C454.967 435.232 449.032 441.661 443.5 437.988C444.877 441.721 440.493 447.534 433.121 443.186C433.121 443.186 432.166 446.161 425.074 444.274C417.981 442.387 395.924 429.198 391.99 426.48C388.056 423.762 367.417 412.732 362.386 409.683C361.284 409.012 358.713 407.566 355.325 405.71C349.358 402.413 340.888 397.831 333.911 394.042C330.413 392.141 327.282 390.438 325.023 389.198C327.395 385.19 330.116 381.399 333.153 377.869C344.221 365.058 356.519 361.338 362.468 363.175C363.073 363.352 363.648 363.616 364.176 363.96C364.176 363.96 401.818 391.278 403.429 391.93C405.041 392.582 427.878 390.704 431.197 390.415C434.516 390.125 437.542 392.362 442.215 395.682C446.888 399.002 456.335 401.734 456.335 401.734L446.658 409.32C446.658 409.32 457.253 418.458 461.509 422.136C465.764 425.814 466.292 427.949 464.883 430.567Z" fill="#F2BA70"/>
<path d="M474.753 391.75C466.536 402.358 459.145 411.927 455.353 416.832L446.631 409.319C446.631 409.319 445.378 408.401 443 406.376C444.956 404.286 447.196 401.931 449.633 399.387C454.384 394.413 459.898 388.715 465.567 382.855C464.047 386.341 471.507 393.449 474.753 391.75Z" fill="url(#paint21_linear_1306_582)"/>
<path d="M446.656 410.011C446.507 410.011 446.362 409.963 446.243 409.873C446.215 409.873 443.401 407.724 438.324 403.219C438.188 403.098 438.105 402.927 438.095 402.744C438.085 402.562 438.147 402.382 438.269 402.246C438.391 402.11 438.562 402.027 438.744 402.017C438.927 402.006 439.106 402.069 439.242 402.191C444.292 406.654 447.046 408.753 447.073 408.771C447.189 408.858 447.274 408.979 447.318 409.117C447.361 409.255 447.359 409.403 447.314 409.54C447.268 409.677 447.18 409.796 447.063 409.881C446.946 409.965 446.805 410.011 446.66 410.011H446.656Z" fill="#BB8A52"/>
<path d="M451.605 430.04C451.461 430.04 451.322 429.995 451.205 429.912C444.535 425.182 435.855 418.551 435.767 418.487C435.69 418.434 435.625 418.366 435.575 418.287C435.525 418.208 435.492 418.12 435.477 418.028C435.463 417.935 435.467 417.841 435.49 417.751C435.513 417.66 435.554 417.575 435.61 417.501C435.667 417.427 435.738 417.365 435.82 417.319C435.901 417.273 435.991 417.244 436.084 417.234C436.177 417.224 436.27 417.233 436.36 417.261C436.449 417.288 436.532 417.334 436.603 417.394C436.69 417.458 445.348 424.075 451.999 428.791C452.118 428.876 452.207 428.996 452.252 429.135C452.298 429.273 452.299 429.423 452.255 429.561C452.21 429.7 452.123 429.821 452.005 429.908C451.888 429.994 451.746 430.04 451.6 430.04H451.605Z" fill="#BB8A52"/>
<path d="M443.499 438.678C443.373 438.678 443.249 438.644 443.141 438.577C443.068 438.536 435.939 434.187 430.747 430.399C430.67 430.347 430.605 430.28 430.555 430.203C430.505 430.125 430.471 430.038 430.455 429.947C430.44 429.856 430.442 429.762 430.463 429.672C430.485 429.582 430.524 429.497 430.578 429.423C430.633 429.348 430.702 429.285 430.781 429.238C430.86 429.191 430.949 429.16 431.04 429.147C431.132 429.134 431.225 429.14 431.314 429.165C431.403 429.189 431.487 429.231 431.559 429.288C436.687 433.039 443.77 437.356 443.839 437.402C443.967 437.48 444.066 437.598 444.121 437.738C444.176 437.877 444.183 438.031 444.143 438.176C444.102 438.32 444.016 438.447 443.896 438.538C443.777 438.629 443.631 438.678 443.481 438.678H443.499Z" fill="#BB8A52"/>
<path d="M433.118 443.87C433.002 443.869 432.888 443.839 432.787 443.782C429.808 442.143 425.957 439.388 425.791 439.273C425.643 439.167 425.543 439.005 425.513 438.825C425.483 438.644 425.527 438.46 425.633 438.311C425.74 438.162 425.901 438.062 426.081 438.033C426.261 438.003 426.446 438.046 426.595 438.153C426.636 438.18 430.547 440.977 433.453 442.575C433.586 442.649 433.69 442.765 433.75 442.904C433.81 443.044 433.822 443.2 433.785 443.347C433.747 443.495 433.661 443.625 433.542 443.719C433.422 443.813 433.275 443.864 433.122 443.865L433.118 443.87Z" fill="#BB8A52"/>
<path d="M362.468 363.153C349.638 366.625 338.226 382.04 333.911 394.043C330.413 392.142 327.282 390.439 325.023 389.199C327.395 385.191 330.116 381.4 333.153 377.87C344.221 365.059 356.519 361.33 362.468 363.153Z" fill="#D39E5F"/>
<path d="M614.522 436.13C612.561 439.188 608.839 444.107 605.093 444.258C603.585 444.366 602.078 444.051 600.741 443.346C599.404 442.642 598.291 441.577 597.528 440.272C591.776 444.534 588.571 438.458 588.571 438.458C583.696 440.653 581.525 436.351 581.525 436.351C578.895 437.186 575.952 436.383 574.947 434.137C573.501 430.923 572.867 425.33 574.056 421.835C575.741 416.871 581.139 416.922 581.525 422.685C583.228 418.814 588.186 418.952 588.87 424.063C592.515 418.492 598.574 420.224 598.51 425.569C603.156 419.356 608.435 424.347 605.786 429.059C605.602 429.389 605.465 429.743 605.377 430.11C605.246 430.318 605.152 430.546 605.097 430.785C604.908 431.945 604.908 433.129 605.097 434.289C605.097 434.289 610.248 435.327 614.522 436.13Z" fill="#F2BA70"/>
<path d="M593.58 442.475C593.178 442.475 592.778 442.431 592.386 442.342C590.261 441.855 588.888 440.188 588.296 439.316C584.293 440.808 582.003 438.273 581.218 437.153C578.266 437.869 575.365 436.749 574.332 434.398C572.891 431.183 572.129 425.37 573.414 421.591C573.475 421.418 573.602 421.276 573.767 421.197C573.932 421.118 574.122 421.107 574.295 421.168C574.468 421.229 574.61 421.356 574.689 421.521C574.768 421.687 574.778 421.877 574.718 422.05C573.579 425.407 574.258 430.862 575.585 433.851C576.388 435.647 578.909 436.455 581.328 435.688C581.483 435.639 581.651 435.646 581.802 435.709C581.952 435.772 582.076 435.887 582.15 436.032C582.228 436.179 584.101 439.706 588.296 437.819C588.456 437.747 588.637 437.739 588.802 437.796C588.968 437.853 589.105 437.971 589.187 438.126C589.187 438.126 590.468 440.487 592.708 440.992C594.085 441.299 595.559 440.868 597.128 439.706C597.275 439.597 597.459 439.551 597.64 439.577C597.821 439.604 597.983 439.702 598.092 439.848C598.201 439.995 598.248 440.179 598.221 440.36C598.194 440.541 598.097 440.704 597.95 440.813C596.454 441.924 594.994 442.475 593.58 442.475Z" fill="#BB8A52"/>
<path d="M598.502 426.267C598.412 426.266 598.322 426.247 598.239 426.211C598.156 426.175 598.081 426.123 598.018 426.059C597.955 425.994 597.905 425.917 597.872 425.833C597.838 425.749 597.822 425.659 597.823 425.569C597.846 423.539 596.863 421.973 595.257 421.482C593.297 420.885 591.02 422.047 589.45 424.448C589.373 424.566 589.262 424.657 589.132 424.709C589.002 424.762 588.859 424.773 588.722 424.742C588.585 424.711 588.461 424.639 588.367 424.536C588.272 424.432 588.211 424.303 588.192 424.164C587.93 422.189 586.943 420.894 585.548 420.697C584.152 420.499 582.844 421.418 582.165 422.961C582.091 423.128 581.954 423.259 581.783 423.326C581.613 423.392 581.423 423.388 581.256 423.314C581.088 423.24 580.957 423.103 580.891 422.933C580.824 422.762 580.828 422.572 580.902 422.405C581.82 420.288 583.776 419.048 585.736 419.328C587.03 419.512 588.49 420.449 589.206 422.492C591.043 420.403 593.476 419.498 595.633 420.164C597.791 420.83 599.209 422.919 599.172 425.583C599.171 425.761 599.101 425.933 598.976 426.06C598.851 426.188 598.681 426.262 598.502 426.267Z" fill="#BB8A52"/>
<path d="M581.527 437.038C581.409 437.039 581.291 437.009 581.188 436.951C581.084 436.893 580.997 436.809 580.935 436.708C578.897 433.328 578.883 426.362 580.912 422.371C580.95 422.286 581.005 422.21 581.074 422.147C581.143 422.084 581.224 422.035 581.311 422.004C581.399 421.973 581.493 421.96 581.586 421.966C581.679 421.973 581.77 421.998 581.853 422.04C581.936 422.082 582.01 422.141 582.069 422.213C582.129 422.284 582.174 422.367 582.2 422.457C582.227 422.546 582.235 422.64 582.224 422.733C582.214 422.825 582.184 422.915 582.138 422.996C580.357 426.504 580.343 433.062 582.115 435.996C582.178 436.1 582.213 436.22 582.215 436.342C582.217 436.464 582.187 436.585 582.127 436.691C582.067 436.798 581.98 436.886 581.875 436.948C581.769 437.01 581.65 437.043 581.527 437.043V437.038Z" fill="#BB8A52"/>
<path d="M588.574 439.143C588.472 439.142 588.371 439.12 588.279 439.076C588.187 439.032 588.106 438.969 588.041 438.89C585.746 436.057 585.87 427.41 588.289 423.695C588.392 423.549 588.547 423.448 588.723 423.415C588.898 423.381 589.08 423.417 589.229 423.515C589.379 423.612 589.484 423.764 589.524 423.938C589.564 424.113 589.534 424.295 589.441 424.448C587.197 427.874 587.302 435.813 589.106 438.017C589.189 438.118 589.241 438.241 589.257 438.37C589.273 438.499 589.251 438.631 589.196 438.748C589.14 438.866 589.052 438.966 588.942 439.036C588.832 439.105 588.704 439.142 588.574 439.143Z" fill="#BB8A52"/>
<path d="M597.528 440.961C597.414 440.961 597.302 440.932 597.202 440.877C597.102 440.823 597.017 440.744 596.954 440.649C595.045 437.738 595.233 429.091 597.937 425.188C597.988 425.113 598.054 425.05 598.13 425.001C598.206 424.952 598.291 424.918 598.38 424.902C598.469 424.886 598.561 424.887 598.649 424.906C598.738 424.925 598.822 424.962 598.896 425.013C598.971 425.065 599.034 425.131 599.083 425.207C599.132 425.283 599.166 425.368 599.182 425.457C599.198 425.546 599.197 425.638 599.178 425.726C599.158 425.815 599.122 425.898 599.071 425.973C596.72 429.371 596.481 437.412 598.107 439.896C598.174 440 598.213 440.12 598.218 440.243C598.223 440.367 598.195 440.49 598.136 440.599C598.077 440.708 597.99 440.799 597.884 440.863C597.778 440.927 597.657 440.961 597.533 440.961H597.528Z" fill="#BB8A52"/>
<path d="M572.695 382.89C560.76 386.6 555.022 398.677 551.042 410.166L542.453 406.18C544.711 402.594 547.248 399.192 550.041 396.004C558.208 386.788 567.958 381.301 572.695 382.89Z" fill="#D39E5F"/>
<path d="M596.194 395.086C588.987 396.583 582.326 398.645 582.528 396.004C582.652 394.347 585.236 392.845 588.496 391.816L592.893 394.328C593.196 394.512 594.472 394.787 596.194 395.086Z" fill="#D39E5F"/>
<path d="M569.889 178.17C570.954 178.17 571.817 177.306 571.817 176.241C571.817 175.176 570.954 174.312 569.889 174.312C568.824 174.312 567.961 175.176 567.961 176.241C567.961 177.306 568.824 178.17 569.889 178.17Z" fill="url(#paint22_linear_1306_582)"/>
<path d="M599.018 178.17C600.083 178.17 600.946 177.306 600.946 176.241C600.946 175.176 600.083 174.312 599.018 174.312C597.953 174.312 597.09 175.176 597.09 176.241C597.09 177.306 597.953 178.17 599.018 178.17Z" fill="url(#paint23_linear_1306_582)"/>
<path d="M628.143 178.17C629.208 178.17 630.071 177.306 630.071 176.241C630.071 175.176 629.208 174.312 628.143 174.312C627.078 174.312 626.215 175.176 626.215 176.241C626.215 177.306 627.078 178.17 628.143 178.17Z" fill="url(#paint24_linear_1306_582)"/>
<path d="M657.272 178.17C658.337 178.17 659.2 177.306 659.2 176.241C659.2 175.176 658.337 174.312 657.272 174.312C656.207 174.312 655.344 175.176 655.344 176.241C655.344 177.306 656.207 178.17 657.272 178.17Z" fill="url(#paint25_linear_1306_582)"/>
<path d="M686.397 178.17C687.462 178.17 688.325 177.306 688.325 176.241C688.325 175.176 687.462 174.312 686.397 174.312C685.332 174.312 684.469 175.176 684.469 176.241C684.469 177.306 685.332 178.17 686.397 178.17Z" fill="url(#paint26_linear_1306_582)"/>
<path d="M770.701 274.285C765.298 275.111 762.741 268.875 763.572 268.283C764.403 267.691 766.785 268.701 766.124 267.332C765.463 265.964 763.572 260.858 765.293 260.444C767.015 260.031 767.846 264.605 768.442 263.948C769.039 263.291 771.353 262.166 771.656 264.958C771.959 267.75 773.198 267.098 773.951 266.501C774.704 265.904 775.75 273.513 770.701 274.285Z" fill="url(#paint27_linear_1306_582)"/>
<path d="M794.194 356.63C797.132 360.179 803.03 358.375 802.76 356.901C802.489 355.427 803.219 355.702 804.761 355.477C806.303 355.252 808.264 354.099 807.515 353.158C806.767 352.217 804.784 353.25 805.284 352.566C805.785 351.881 809.306 350.729 808.957 349.471C808.64 348.286 803.815 350.426 803.769 349.742C803.724 349.057 804.109 346.775 802.952 346.527C801.047 346.068 799.041 350.848 798.633 350.486C798.224 350.123 798.362 348.268 797.604 348.19C795.635 347.932 792.587 354.701 794.194 356.63Z" fill="url(#paint28_linear_1306_582)"/>
<path d="M710.512 396.249C705.958 387.662 703.3 378.34 703.048 368.949C702.795 359.559 700.918 358.971 696.295 358.925C694.096 358.925 695.418 339.579 687.334 341.42C681.826 342.679 678.479 356.872 685.117 371.14C685.117 371.14 681.573 369.418 681.293 372.357C681.013 375.295 683.588 381.508 696.58 392.396C705.696 400.042 715.722 400.57 715.722 400.57L710.512 396.249Z" fill="url(#paint29_linear_1306_582)"/>
<path d="M784.519 332.656C785.41 333.414 783.748 339.769 786.58 338.791C789.413 337.813 795.302 333.841 793.746 332.656C792.19 331.472 789.569 330.544 789.982 330.025C790.395 329.506 793.691 327.601 791.681 325.539C789.67 323.477 785.084 323.785 782.146 325.998C779.208 328.211 778.097 332.105 779.208 333.887C781.269 337.17 783.881 332.096 784.519 332.656Z" fill="url(#paint30_linear_1306_582)"/>
<path d="M783.391 301.774C783.744 300.437 783.85 299.363 783.391 299.083C782.013 298.196 780.797 299.689 779.617 308.313L780.724 308.772L780.926 308.313L781.651 308.937C781.651 308.937 787.329 304.74 787.38 301.962C787.43 299.184 784.846 299.018 783.391 301.774Z" fill="url(#paint31_linear_1306_582)"/>
<path d="M781.217 306.151C783.452 307.488 782.029 310.941 779.624 313.958C777.218 316.975 767.344 326.65 756.882 321.029C746.421 315.409 747.196 305.334 750.295 297.969C753.394 290.603 757.796 289.538 760.601 291.191C764.966 293.758 761.84 306.271 766.275 307.993C776.58 311.992 779.009 304.829 781.217 306.151Z" fill="url(#paint32_linear_1306_582)"/>
<path d="M777.361 317.044C777.24 317.044 777.121 317.012 777.016 316.952C772.885 314.569 773.395 309.665 773.904 308.627C773.941 308.541 773.995 308.464 774.063 308.4C774.13 308.336 774.21 308.286 774.298 308.254C774.385 308.221 774.478 308.207 774.572 308.212C774.665 308.217 774.756 308.24 774.84 308.281C774.923 308.322 774.998 308.38 775.059 308.451C775.119 308.522 775.165 308.604 775.193 308.693C775.221 308.782 775.231 308.876 775.221 308.969C775.212 309.061 775.184 309.151 775.139 309.233C774.942 309.637 774.184 313.738 777.7 315.758C777.832 315.834 777.935 315.951 777.993 316.091C778.051 316.231 778.061 316.387 778.022 316.533C777.983 316.68 777.896 316.81 777.776 316.902C777.655 316.994 777.508 317.044 777.356 317.044H777.361Z" fill="#ECB88B"/>
<path d="M770.211 321.918C770.082 321.917 769.957 321.881 769.848 321.812C768.749 321.127 767.855 320.157 767.263 319.005C766.67 317.853 766.401 316.562 766.483 315.269C766.542 313.866 766.974 312.504 767.735 311.325C768.496 310.145 769.559 309.191 770.812 308.56C770.976 308.479 771.165 308.466 771.338 308.525C771.511 308.583 771.654 308.708 771.735 308.872C771.816 309.036 771.828 309.225 771.77 309.398C771.711 309.571 771.586 309.714 771.423 309.795C770.39 310.317 769.515 311.106 768.889 312.079C768.263 313.053 767.908 314.176 767.86 315.333C767.784 316.382 767.997 317.432 768.476 318.368C768.955 319.304 769.682 320.09 770.578 320.641C770.704 320.72 770.801 320.839 770.855 320.978C770.908 321.117 770.915 321.27 770.874 321.413C770.833 321.557 770.747 321.683 770.628 321.773C770.509 321.863 770.364 321.912 770.215 321.913L770.211 321.918Z" fill="#ECB88B"/>
<path d="M761.961 323.33C761.792 323.332 761.629 323.272 761.502 323.16C759.606 321.503 758.821 318.394 759.505 315.244C759.863 313.437 760.706 311.761 761.942 310.396C763.178 309.031 764.762 308.027 766.524 307.492C766.696 307.45 766.877 307.476 767.03 307.564C767.183 307.651 767.297 307.795 767.348 307.964C767.398 308.133 767.382 308.315 767.302 308.473C767.222 308.63 767.085 308.751 766.919 308.81C765.394 309.276 764.023 310.147 762.954 311.331C761.886 312.515 761.158 313.968 760.85 315.533C760.272 318.201 760.882 320.786 762.406 322.118C762.512 322.21 762.588 322.333 762.622 322.47C762.656 322.606 762.647 322.75 762.597 322.882C762.547 323.013 762.458 323.126 762.342 323.206C762.226 323.285 762.088 323.327 761.947 323.326L761.961 323.33Z" fill="#ECB88B"/>
<path d="M750.088 315.324C750.033 315.331 749.978 315.331 749.923 315.324C749.746 315.281 749.593 315.169 749.499 315.013C749.404 314.857 749.375 314.67 749.418 314.493C751.327 306.65 756.584 303.013 764.213 304.207C764.396 304.235 764.559 304.336 764.668 304.485C764.777 304.634 764.822 304.821 764.794 305.004C764.765 305.186 764.665 305.35 764.516 305.459C764.366 305.568 764.18 305.613 763.997 305.584C757.079 304.487 752.498 307.683 750.754 314.837C750.71 314.979 750.622 315.104 750.502 315.191C750.382 315.279 750.237 315.326 750.088 315.324Z" fill="#ECB88B"/>
<path d="M749.294 301.433C749.17 301.433 749.047 301.399 748.941 301.335C748.834 301.271 748.746 301.18 748.687 301.07C748.628 300.96 748.6 300.836 748.606 300.712C748.612 300.587 748.652 300.467 748.72 300.363C750.873 297.149 753.458 295.312 756.198 295.009C758.755 294.738 761.39 295.845 763.819 298.223C763.887 298.285 763.942 298.361 763.981 298.445C764.019 298.528 764.04 298.619 764.043 298.711C764.046 298.804 764.03 298.896 763.997 298.982C763.963 299.068 763.913 299.146 763.849 299.212C763.784 299.279 763.707 299.331 763.622 299.367C763.537 299.403 763.446 299.421 763.354 299.421C763.261 299.421 763.17 299.402 763.085 299.366C763 299.33 762.923 299.277 762.859 299.21C760.734 297.144 758.489 296.175 756.341 296.396C754.023 296.639 751.782 298.283 749.864 301.144C749.799 301.234 749.714 301.308 749.614 301.358C749.515 301.409 749.405 301.434 749.294 301.433Z" fill="#ECB88B"/>
<path d="M761.985 401.771C764.184 403.447 769.27 399.851 768.118 398.511C766.966 397.17 764.689 392.504 768.288 388.541C771.887 384.579 780.388 385.153 780.833 387.646C781.279 390.139 780.195 390.787 777.62 393.914C775.045 397.041 777.556 401.491 779.984 402.685C782.413 403.879 787.65 405.67 792.507 396.655C797.364 387.641 796.726 373.452 786.374 368.787C776.023 364.121 762.82 373.962 759.552 382.659C756.283 391.356 759.042 399.535 761.985 401.771Z" fill="url(#paint33_linear_1306_582)"/>
<path d="M792.032 398.222C791.897 398.222 791.765 398.182 791.652 398.108C791.54 398.034 791.451 397.928 791.398 397.804C790.978 396.821 790.36 395.935 789.582 395.201C788.804 394.468 787.883 393.903 786.877 393.542C784.123 392.558 781.093 392.695 778.439 393.924C778.276 393.992 778.092 393.995 777.926 393.931C777.761 393.868 777.626 393.743 777.55 393.583C777.475 393.422 777.464 393.239 777.52 393.07C777.576 392.902 777.695 392.762 777.852 392.679C780.846 391.296 784.263 391.144 787.368 392.257C788.548 392.681 789.628 393.345 790.54 394.206C791.453 395.068 792.178 396.108 792.67 397.262C792.715 397.367 792.733 397.481 792.723 397.595C792.712 397.708 792.674 397.817 792.611 397.912C792.549 398.008 792.463 398.086 792.363 398.14C792.262 398.194 792.15 398.222 792.036 398.222H792.032Z" fill="#ECB88B"/>
<path d="M780.146 387.364C780.021 387.364 779.899 387.33 779.792 387.266C779.685 387.202 779.598 387.11 779.539 387C779.48 386.891 779.452 386.767 779.458 386.642C779.464 386.518 779.503 386.398 779.572 386.294C782.639 381.647 788.143 380.085 795.497 381.784C795.589 381.8 795.676 381.835 795.755 381.886C795.833 381.937 795.9 382.004 795.952 382.082C796.003 382.16 796.039 382.247 796.055 382.339C796.072 382.431 796.07 382.526 796.049 382.617C796.028 382.708 795.989 382.794 795.934 382.869C795.879 382.945 795.809 383.008 795.728 383.056C795.648 383.103 795.558 383.134 795.466 383.146C795.373 383.158 795.279 383.151 795.189 383.125C790.488 382.042 784.172 381.839 780.724 387.051C780.662 387.148 780.576 387.226 780.475 387.281C780.374 387.336 780.261 387.364 780.146 387.364Z" fill="#ECB88B"/>
<path d="M776.01 386.36C775.838 386.359 775.674 386.295 775.547 386.18C775.421 386.064 775.342 385.906 775.326 385.735C774.628 378.365 781.023 369.92 787.996 369.002C788.178 368.978 788.363 369.028 788.509 369.14C788.655 369.253 788.75 369.418 788.774 369.601C788.797 369.784 788.748 369.968 788.635 370.114C788.523 370.26 788.357 370.356 788.175 370.379C781.973 371.192 776.074 379.026 776.698 385.616C776.715 385.797 776.659 385.978 776.543 386.118C776.427 386.258 776.26 386.347 776.079 386.364L776.01 386.36Z" fill="#ECB88B"/>
<path d="M771.127 387.301C771.024 387.301 770.922 387.278 770.829 387.234C770.736 387.189 770.654 387.124 770.59 387.044C766.697 382.19 766.858 372.91 770.893 369.627C771.034 369.511 771.216 369.457 771.398 369.476C771.579 369.495 771.746 369.586 771.861 369.728C771.976 369.869 772.03 370.051 772.011 370.233C771.992 370.415 771.902 370.581 771.76 370.696C768.294 373.521 768.239 381.91 771.664 386.181C771.745 386.282 771.796 386.404 771.811 386.533C771.826 386.662 771.804 386.793 771.748 386.91C771.692 387.027 771.604 387.126 771.494 387.195C771.384 387.264 771.257 387.301 771.127 387.301Z" fill="#ECB88B"/>
<path d="M767.791 388.905C764.913 388.905 760.703 386.921 758.941 382.935C758.902 382.852 758.879 382.762 758.876 382.671C758.872 382.579 758.886 382.488 758.918 382.402C758.95 382.316 758.999 382.237 759.062 382.17C759.124 382.104 759.2 382.05 759.283 382.013C759.367 381.975 759.458 381.955 759.549 381.953C759.641 381.951 759.732 381.968 759.817 382.001C759.902 382.035 759.98 382.086 760.045 382.15C760.111 382.214 760.163 382.291 760.198 382.375C761.888 386.186 766.272 387.927 768.553 387.454C768.642 387.435 768.733 387.435 768.822 387.452C768.911 387.469 768.996 387.503 769.071 387.553C769.147 387.602 769.212 387.666 769.263 387.741C769.314 387.816 769.35 387.9 769.368 387.989C769.386 388.077 769.387 388.169 769.37 388.258C769.353 388.347 769.319 388.431 769.269 388.507C769.22 388.583 769.156 388.648 769.081 388.699C769.006 388.75 768.922 388.785 768.833 388.804C768.49 388.873 768.141 388.907 767.791 388.905Z" fill="#ECB88B"/>
<path d="M763.279 395.833C762.847 395.833 762.418 395.783 761.998 395.686C760.194 395.268 758.647 394.019 757.513 392.077C757.463 391.998 757.43 391.911 757.415 391.82C757.4 391.728 757.404 391.635 757.426 391.545C757.448 391.455 757.488 391.37 757.543 391.296C757.598 391.222 757.668 391.16 757.748 391.113C757.828 391.067 757.916 391.037 758.008 391.025C758.1 391.013 758.193 391.02 758.282 391.046C758.371 391.071 758.454 391.114 758.526 391.172C758.598 391.23 758.658 391.302 758.702 391.383C759.62 392.99 760.882 394.014 762.305 394.345C762.936 394.482 763.589 394.485 764.221 394.355C764.853 394.226 765.452 393.966 765.978 393.592C766.053 393.542 766.138 393.507 766.226 393.49C766.315 393.472 766.406 393.473 766.495 393.491C766.584 393.508 766.668 393.544 766.743 393.594C766.818 393.645 766.883 393.709 766.933 393.785C766.983 393.86 767.017 393.945 767.035 394.033C767.052 394.122 767.052 394.214 767.034 394.302C767.016 394.391 766.981 394.475 766.93 394.55C766.88 394.625 766.815 394.69 766.74 394.74C765.719 395.437 764.515 395.817 763.279 395.833Z" fill="#ECB88B"/>
<path d="M605.838 437.236C605.708 437.236 605.581 437.199 605.472 437.13C605.362 437.061 605.274 436.963 605.218 436.846C604.07 434.467 603.882 431.184 604.805 429.673C604.85 429.592 604.911 429.521 604.984 429.465C605.058 429.408 605.141 429.366 605.231 429.343C605.321 429.319 605.414 429.314 605.506 429.328C605.597 429.341 605.685 429.373 605.764 429.421C605.843 429.469 605.912 429.533 605.966 429.608C606.02 429.683 606.058 429.769 606.078 429.859C606.098 429.95 606.1 430.043 606.083 430.134C606.066 430.226 606.031 430.312 605.98 430.389C605.448 431.267 605.365 433.985 606.439 436.249C606.489 436.354 606.513 436.47 606.506 436.586C606.499 436.702 606.464 436.815 606.402 436.914C606.34 437.012 606.254 437.094 606.152 437.15C606.05 437.206 605.936 437.236 605.819 437.236H605.838Z" fill="#BB8A52"/>
<path d="M670.989 446.538L642.96 441.308C637.676 436.486 637.74 429.341 650.805 425.355C659.711 426.931 665.669 427.996 665.669 427.996L670.989 446.538Z" fill="url(#paint34_linear_1306_582)"/>
<path d="M663.18 421.246C663.102 433.158 664.098 445.694 675.418 456.811C686.738 467.928 705.064 475.234 727.621 480.033C750.179 484.831 782.115 480.143 790.612 475.565C799.109 470.986 807.703 453.794 808.056 446.53L663.18 421.246Z" fill="url(#paint35_linear_1306_582)"/>
<path d="M808.041 446.538C807.752 449.367 802.886 452.916 794.669 455.777C780.76 460.621 757.238 463.505 729.998 457.614C703.763 451.92 684.281 442.763 673.305 434.631C666.158 429.327 662.619 424.464 663.179 421.273C666.442 402.712 722.428 408.277 753.731 417.025C785.034 425.773 808.826 438.915 808.041 446.538Z" fill="url(#paint36_linear_1306_582)"/>
<path d="M794.669 455.769C780.759 460.613 757.238 463.497 729.998 457.605C703.763 451.911 684.281 442.755 673.305 434.623C680.443 427.101 706.269 424.699 736.002 429.424C767.856 434.466 792.906 445.914 794.669 455.769Z" fill="url(#paint37_linear_1306_582)"/>
<path d="M727.79 443.819C741.561 441.394 750.651 435.374 757.688 432.04C764.725 428.707 771.781 427.687 770.197 433.615C773.144 429.942 784.483 428.399 784.639 432.555C784.937 440.448 773.213 443.259 773.218 443.272C773.222 443.286 779.929 443.052 779.185 445.656C777.849 450.248 747.676 453.632 722.832 442.868L727.79 443.819Z" fill="url(#paint38_linear_1306_582)"/>
<path d="M369.995 369.227C369.864 369.227 369.736 369.189 369.626 369.119C369.516 369.049 369.428 368.949 369.372 368.83C369.317 368.712 369.296 368.58 369.313 368.45C369.33 368.32 369.383 368.198 369.467 368.098C369.522 368.033 369.573 367.96 369.623 367.891C371.689 365.021 370.174 360.438 364.574 352.572L364.541 352.522C362.967 350.317 361.172 347.989 359.469 345.799C359.357 345.655 359.307 345.472 359.33 345.29C359.352 345.109 359.446 344.944 359.591 344.832C359.735 344.72 359.918 344.67 360.099 344.693C360.28 344.716 360.445 344.81 360.557 344.954C362.283 347.172 364.101 349.546 365.698 351.768L365.73 351.819C370.179 358.05 373.851 364.401 370.78 368.699C370.711 368.796 370.642 368.887 370.569 368.979C370.499 369.063 370.411 369.129 370.312 369.172C370.212 369.215 370.103 369.234 369.995 369.227Z" fill="#C5E0E2"/>
<path d="M365.126 352.862C364.944 352.862 364.77 352.79 364.641 352.662C364.512 352.534 364.439 352.36 364.438 352.178C364.437 352.092 364.453 352.006 364.483 351.925C367.022 345.372 369.414 339.352 371.525 334.044C379.637 313.679 384.966 300.229 386.063 288.051C386.619 282.303 386.627 276.516 386.086 270.767C385.398 263.879 384.099 260.398 383.846 259.769C383.777 259.599 383.779 259.41 383.85 259.241C383.921 259.073 384.056 258.94 384.225 258.871C384.394 258.802 384.584 258.803 384.752 258.875C384.92 258.946 385.054 259.081 385.122 259.25C385.894 261.146 386.908 265.132 387.454 270.629C388.011 276.466 388.011 282.342 387.454 288.179C386.32 300.555 380.945 314.078 372.806 334.558C370.699 339.862 368.307 345.868 365.773 352.412C365.724 352.544 365.636 352.658 365.52 352.739C365.405 352.819 365.267 352.862 365.126 352.862Z" fill="#C5E0E2"/>
<path d="M620.177 428.093C618.672 428.093 615.959 427.349 613.93 422.629C613.415 421.43 612.92 420.218 612.456 419.019C611.588 416.801 610.973 415.015 610.689 414.17C609.771 414.271 607.691 414.483 604.96 414.689C604.869 414.696 604.778 414.685 604.692 414.656C604.606 414.628 604.527 414.582 604.458 414.523C604.389 414.464 604.333 414.392 604.292 414.311C604.252 414.23 604.227 414.141 604.221 414.051C604.214 413.96 604.225 413.87 604.254 413.783C604.282 413.697 604.327 413.618 604.387 413.549C604.446 413.48 604.518 413.424 604.599 413.383C604.68 413.343 604.768 413.318 604.859 413.312C608.6 413.031 611.06 412.738 611.088 412.738C611.245 412.718 611.404 412.753 611.539 412.837C611.673 412.92 611.775 413.047 611.827 413.197C611.827 413.197 612.548 415.438 613.746 418.505C614.205 419.69 614.696 420.888 615.201 422.068C616.578 425.283 618.529 426.945 620.572 426.66C622.069 426.463 623.147 425.283 623.294 424.268C623.401 423.075 623.332 421.873 623.088 420.7C622.469 417.626 621.694 414.585 620.765 411.59C620.186 409.597 619.594 407.535 619.117 405.62C617.602 399.568 614.476 398.562 610.542 397.869L609.472 397.694C609.382 397.68 609.295 397.649 609.217 397.601C609.138 397.554 609.07 397.492 609.016 397.418C608.962 397.344 608.923 397.26 608.901 397.171C608.879 397.083 608.875 396.99 608.889 396.9C608.903 396.809 608.935 396.723 608.982 396.644C609.029 396.566 609.092 396.498 609.165 396.444C609.239 396.39 609.323 396.35 609.412 396.329C609.501 396.307 609.593 396.303 609.683 396.317L610.78 396.5C615.059 397.249 618.74 398.429 620.453 405.271C620.912 407.145 621.513 409.193 622.087 411.176C623.032 414.221 623.82 417.313 624.446 420.438C624.72 421.751 624.792 423.098 624.662 424.433C624.405 426.206 622.73 427.735 620.76 427.997C620.568 428.042 620.374 428.074 620.177 428.093Z" fill="#BB8A52"/>
<path d="M429.172 445.58C427.726 445.551 426.29 445.334 424.899 444.937C424.722 444.89 424.571 444.775 424.48 444.617C424.388 444.459 424.363 444.271 424.41 444.094C424.457 443.918 424.572 443.767 424.73 443.675C424.888 443.584 425.076 443.558 425.252 443.605C431.436 445.249 432.459 442.995 432.468 442.972C432.5 442.873 432.554 442.784 432.625 442.709C432.696 442.634 432.783 442.576 432.88 442.539C432.976 442.503 433.08 442.488 433.182 442.497C433.285 442.506 433.385 442.538 433.474 442.59C436.563 444.427 439.441 444.524 441.397 442.898C442.811 441.713 443.426 439.753 442.857 438.228C442.806 438.092 442.8 437.942 442.839 437.802C442.878 437.662 442.961 437.538 443.075 437.447C443.189 437.357 443.329 437.305 443.475 437.3C443.62 437.294 443.764 437.334 443.885 437.415C446.405 439.087 448.765 438.334 450.128 437.043C451.776 435.5 452.69 432.63 451.014 429.696C450.969 429.617 450.94 429.531 450.929 429.441C450.917 429.351 450.924 429.26 450.948 429.172C450.972 429.085 451.012 429.003 451.068 428.931C451.123 428.86 451.193 428.8 451.271 428.755C451.35 428.71 451.437 428.681 451.526 428.67C451.616 428.658 451.708 428.665 451.795 428.688C451.882 428.712 451.964 428.753 452.036 428.809C452.107 428.864 452.167 428.933 452.212 429.012C454.264 432.603 453.13 436.139 451.074 438.054C450.209 438.881 449.12 439.436 447.943 439.651C446.766 439.867 445.552 439.733 444.45 439.266C444.464 440.16 444.277 441.046 443.903 441.859C443.528 442.671 442.976 443.389 442.288 443.959C441.186 444.877 438.156 446.673 433.359 444.106C432.804 444.744 431.619 445.58 429.172 445.58Z" fill="#BB8A52"/>
<path d="M461.489 422.825C461.32 422.827 461.157 422.767 461.03 422.655C456.775 418.982 446.18 409.839 446.18 409.839L447.098 408.797C447.098 408.797 457.693 417.935 461.948 421.613C462.054 421.706 462.129 421.828 462.163 421.965C462.197 422.102 462.189 422.245 462.139 422.377C462.089 422.508 462 422.621 461.884 422.701C461.767 422.78 461.63 422.822 461.489 422.821V422.825Z" fill="#BB8A52"/>
<path d="M522.053 54.9809C517.463 60.4362 499.876 62.3281 479.609 59.155C458.874 55.8993 442.426 48.4327 440.328 41.7055C441.03 41.4305 441.762 41.2394 442.509 41.1361C463.882 38.211 501.267 43.0417 519.409 52.8548C520.412 53.3978 521.307 54.1181 522.053 54.9809Z" fill="url(#paint39_linear_1306_582)"/>
<path d="M738.101 406.515C734.195 405.625 734.589 403.797 737.642 403.003C740.695 402.208 746.589 402.658 749.458 407.135C752.327 411.613 747.333 414.06 746.047 413.367C744.762 412.673 742.49 409.56 742.044 410.152C741.599 410.745 740.956 417.619 738.831 416.926C736.706 416.232 731.601 414.556 731.762 413.316C732.12 410.667 738.615 406.635 738.101 406.515Z" fill="url(#paint40_linear_1306_582)"/>
<path d="M735.741 255.936C740.332 256.905 743.375 251.303 741.434 247.11C739.492 242.918 734.176 243.855 732.253 247.487C730.329 251.119 732.188 255.188 735.741 255.936Z" fill="url(#paint41_linear_1306_582)"/>
<path d="M755.244 339.255C753.899 332.087 742.442 326.618 729.363 334.438C719.057 340.6 717.042 350.129 722.978 357.145C728.913 364.162 741.014 360.438 748.074 356.066C755.134 351.695 756.585 346.432 755.244 339.255ZM746.233 354.239C740.426 357.834 730.465 360.906 725.576 355.125C720.687 349.344 722.363 341.51 730.832 336.435C741.597 330.007 751.03 334.498 752.132 340.403C753.234 346.308 752.045 350.661 746.233 354.239Z" fill="url(#paint42_linear_1306_582)"/>
<path d="M706.759 411.477C713.728 411.564 714.311 418.764 711.175 421.322C710.42 421.931 709.539 422.364 708.595 422.588C707.652 422.813 706.67 422.823 705.722 422.62C704.774 422.416 703.883 422.003 703.115 421.41C702.347 420.818 701.721 420.062 701.283 419.196C699.313 415.417 702.398 411.427 706.759 411.477Z" fill="url(#paint43_linear_1306_582)"/>
<path d="M773.501 280.205C773.362 280.206 773.226 280.164 773.111 280.085C770.256 278.125 768.695 273.684 768.833 267.917C768.837 267.737 768.912 267.567 769.041 267.441C769.169 267.316 769.342 267.246 769.521 267.246C769.703 267.251 769.876 267.327 770.001 267.459C770.127 267.591 770.195 267.767 770.191 267.949C770.068 273.17 771.445 277.28 773.864 278.969C773.986 279.052 774.078 279.172 774.126 279.312C774.175 279.451 774.178 279.602 774.134 279.743C774.09 279.884 774.003 280.007 773.884 280.094C773.765 280.181 773.621 280.228 773.474 280.228L773.501 280.205Z" fill="#51823B"/>
<path d="M791.608 357.598C789.958 357.588 788.321 357.31 786.761 356.776C786.675 356.748 786.595 356.702 786.527 356.643C786.458 356.584 786.402 356.511 786.362 356.43C786.321 356.349 786.297 356.261 786.291 356.171C786.284 356.08 786.296 355.99 786.324 355.904C786.353 355.818 786.398 355.738 786.458 355.67C786.517 355.602 786.589 355.545 786.67 355.505C786.751 355.464 786.839 355.44 786.93 355.434C787.02 355.427 787.111 355.439 787.197 355.468C795.23 358.145 800.004 352.891 800.876 351.794C800.991 351.652 801.158 351.562 801.34 351.543C801.521 351.524 801.703 351.578 801.845 351.693C801.987 351.808 802.077 351.975 802.096 352.156C802.115 352.338 802.061 352.52 801.946 352.662C800.699 354.203 799.123 355.445 797.335 356.299C795.546 357.153 793.59 357.597 791.608 357.598Z" fill="#51823B"/>
<path d="M721.255 404.646C721.147 404.647 721.04 404.621 720.943 404.573C704.321 396.137 691.353 374.881 688.676 351.678C688.666 351.587 688.674 351.495 688.699 351.408C688.724 351.32 688.766 351.239 688.823 351.168C688.88 351.096 688.95 351.037 689.029 350.993C689.109 350.949 689.196 350.921 689.287 350.911C689.377 350.9 689.469 350.908 689.556 350.933C689.644 350.958 689.725 351 689.797 351.057C689.868 351.114 689.927 351.184 689.971 351.264C690.015 351.343 690.043 351.431 690.053 351.521C692.679 374.284 705.344 395.113 721.572 403.346C721.711 403.416 721.822 403.531 721.887 403.672C721.952 403.812 721.968 403.971 721.932 404.122C721.896 404.273 721.81 404.408 721.688 404.504C721.566 404.599 721.415 404.651 721.26 404.651L721.255 404.646Z" fill="#51823B"/>
<path d="M741.057 445.587C731.409 445.585 721.835 443.915 712.756 440.65C712.665 440.625 712.58 440.581 712.506 440.522C712.432 440.463 712.372 440.389 712.328 440.305C712.284 440.221 712.258 440.129 712.252 440.034C712.245 439.94 712.258 439.845 712.29 439.756C712.321 439.666 712.371 439.585 712.435 439.516C712.5 439.446 712.578 439.391 712.665 439.354C712.752 439.316 712.846 439.297 712.94 439.297C713.035 439.297 713.129 439.317 713.215 439.355C723.587 443.063 734.594 444.663 745.592 444.062C756.215 443.419 764.693 440.522 768.848 436.104C768.91 436.038 768.984 435.985 769.067 435.948C769.15 435.91 769.239 435.89 769.329 435.887C769.42 435.884 769.51 435.899 769.595 435.931C769.68 435.964 769.757 436.012 769.823 436.074C769.889 436.136 769.942 436.211 769.98 436.293C770.017 436.376 770.037 436.465 770.04 436.556C770.043 436.647 770.028 436.737 769.996 436.822C769.964 436.906 769.915 436.984 769.853 437.05C764.602 442.648 753.543 445.587 741.057 445.587Z" fill="#51823B"/>
<defs>
<linearGradient id="paint0_linear_1306_582" x1="628.318" y1="180.82" x2="627.973" y2="171.865" gradientUnits="userSpaceOnUse">
<stop stop-color="#C98348"/>
<stop offset="1" stop-color="#DD9127"/>
</linearGradient>
<linearGradient id="paint1_linear_1306_582" x1="766.565" y1="400.35" x2="772.085" y2="407.668" gradientUnits="userSpaceOnUse">
<stop stop-color="#F7B381"/>
<stop offset="1" stop-color="#FCD7BA"/>
</linearGradient>
<linearGradient id="paint2_linear_1306_582" x1="584.467" y1="232.155" x2="616.02" y2="241.677" gradientUnits="userSpaceOnUse">
<stop stop-color="#E8E8EB"/>
<stop offset="1" stop-color="#D3D3D3"/>
</linearGradient>
<linearGradient id="paint3_linear_1306_582" x1="598.237" y1="224.458" x2="659.557" y2="244.693" gradientUnits="userSpaceOnUse">
<stop stop-color="#E8E8EB"/>
<stop offset="1" stop-color="#D3D3D3"/>
</linearGradient>
<linearGradient id="paint4_linear_1306_582" x1="663.809" y1="230.864" x2="701.107" y2="238.28" gradientUnits="userSpaceOnUse">
<stop stop-color="#E8E8EB"/>
<stop offset="1" stop-color="#D3D3D3"/>
</linearGradient>
<linearGradient id="paint5_linear_1306_582" x1="594.329" y1="186.366" x2="611.266" y2="196.932" gradientUnits="userSpaceOnUse">
<stop offset="0.04" stop-color="#654B1E"/>
<stop offset="1" stop-color="#2E1D12"/>
</linearGradient>
<linearGradient id="paint6_linear_1306_582" x1="682.386" y1="186.609" x2="694.136" y2="194.646" gradientUnits="userSpaceOnUse">
<stop offset="0.04" stop-color="#654B1E"/>
<stop offset="1" stop-color="#2E1D12"/>
</linearGradient>
<linearGradient id="paint7_linear_1306_582" x1="620.836" y1="186.109" x2="641.133" y2="194.117" gradientUnits="userSpaceOnUse">
<stop offset="0.04" stop-color="#654B1E"/>
<stop offset="1" stop-color="#2E1D12"/>
</linearGradient>
<linearGradient id="paint8_linear_1306_582" x1="438.822" y1="124.545" x2="436.594" y2="148.061" gradientUnits="userSpaceOnUse">
<stop offset="0.04" stop-color="#654B1E"/>
<stop offset="1" stop-color="#2E1D12"/>
</linearGradient>
<linearGradient id="paint9_linear_1306_582" x1="477.571" y1="96.2805" x2="493.458" y2="132.494" gradientUnits="userSpaceOnUse">
<stop stop-color="white"/>
<stop offset="1" stop-color="#DDF1F3"/>
</linearGradient>
<linearGradient id="paint10_linear_1306_582" x1="453.534" y1="336.966" x2="332.675" y2="392.931" gradientUnits="userSpaceOnUse">
<stop stop-color="white"/>
<stop offset="1" stop-color="#DDF1F3"/>
</linearGradient>
<linearGradient id="paint11_linear_1306_582" x1="353.822" y1="330.987" x2="287.028" y2="291.648" gradientUnits="userSpaceOnUse">
<stop stop-color="white"/>
<stop offset="1" stop-color="#DDF1F3"/>
</linearGradient>
<linearGradient id="paint12_linear_1306_582" x1="464.143" y1="347.923" x2="414.285" y2="369.03" gradientUnits="userSpaceOnUse">
<stop stop-color="white"/>
<stop offset="1" stop-color="#DDF1F3"/>
</linearGradient>
<linearGradient id="paint13_linear_1306_582" x1="538.274" y1="319.5" x2="509.738" y2="327.242" gradientUnits="userSpaceOnUse">
<stop stop-color="white"/>
<stop offset="1" stop-color="#DDF1F3"/>
</linearGradient>
<linearGradient id="paint14_linear_1306_582" x1="564.092" y1="431.996" x2="556.839" y2="407.834" gradientUnits="userSpaceOnUse">
<stop stop-color="#45A5A5"/>
<stop offset="1" stop-color="#308B85"/>
</linearGradient>
<linearGradient id="paint15_linear_1306_582" x1="616.126" y1="424.216" x2="613.783" y2="438.074" gradientUnits="userSpaceOnUse">
<stop offset="0.04" stop-color="#654B1E"/>
<stop offset="1" stop-color="#2E1D12"/>
</linearGradient>
<linearGradient id="paint16_linear_1306_582" x1="493.441" y1="349.836" x2="506.422" y2="361.973" gradientUnits="userSpaceOnUse">
<stop stop-color="#E8E8EB"/>
<stop offset="1" stop-color="#D3D3D3"/>
</linearGradient>
<linearGradient id="paint17_linear_1306_582" x1="480.693" y1="46.7073" x2="470.849" y2="107.109" gradientUnits="userSpaceOnUse">
<stop stop-color="white"/>
<stop offset="1" stop-color="#DDF1F3"/>
</linearGradient>
<linearGradient id="paint18_linear_1306_582" x1="413.215" y1="189.454" x2="413.629" y2="194.514" gradientUnits="userSpaceOnUse">
<stop stop-color="#45A5A5"/>
<stop offset="1" stop-color="#308B85"/>
</linearGradient>
<linearGradient id="paint19_linear_1306_582" x1="349.08" y1="408.44" x2="341.336" y2="390.901" gradientUnits="userSpaceOnUse">
<stop stop-color="#45A5A5"/>
<stop offset="1" stop-color="#308B85"/>
</linearGradient>
<linearGradient id="paint20_linear_1306_582" x1="471.011" y1="289.723" x2="442.111" y2="300.499" gradientUnits="userSpaceOnUse">
<stop stop-color="white"/>
<stop offset="1" stop-color="#DDF1F3"/>
</linearGradient>
<linearGradient id="paint21_linear_1306_582" x1="457.327" y1="397.504" x2="465.042" y2="405.216" gradientUnits="userSpaceOnUse">
<stop offset="0.04" stop-color="#654B1E"/>
<stop offset="1" stop-color="#2E1D12"/>
</linearGradient>
<linearGradient id="paint22_linear_1306_582" x1="569.889" y1="167.085" x2="569.889" y2="178.973" gradientUnits="userSpaceOnUse">
<stop stop-color="#E8E8EB"/>
<stop offset="1" stop-color="#D3D3D3"/>
</linearGradient>
<linearGradient id="paint23_linear_1306_582" x1="599.018" y1="167.085" x2="599.018" y2="178.973" gradientUnits="userSpaceOnUse">
<stop stop-color="#E8E8EB"/>
<stop offset="1" stop-color="#D3D3D3"/>
</linearGradient>
<linearGradient id="paint24_linear_1306_582" x1="628.143" y1="167.085" x2="628.143" y2="178.973" gradientUnits="userSpaceOnUse">
<stop stop-color="#E8E8EB"/>
<stop offset="1" stop-color="#D3D3D3"/>
</linearGradient>
<linearGradient id="paint25_linear_1306_582" x1="657.272" y1="167.085" x2="657.272" y2="178.973" gradientUnits="userSpaceOnUse">
<stop stop-color="#E8E8EB"/>
<stop offset="1" stop-color="#D3D3D3"/>
</linearGradient>
<linearGradient id="paint26_linear_1306_582" x1="686.397" y1="167.085" x2="686.397" y2="178.973" gradientUnits="userSpaceOnUse">
<stop stop-color="#E8E8EB"/>
<stop offset="1" stop-color="#D3D3D3"/>
</linearGradient>
<linearGradient id="paint27_linear_1306_582" x1="769.654" y1="265.927" x2="765.558" y2="272.254" gradientUnits="userSpaceOnUse">
<stop stop-color="#AAC76F"/>
<stop offset="1" stop-color="#609640"/>
</linearGradient>
<linearGradient id="paint28_linear_1306_582" x1="800.905" y1="350.724" x2="802.508" y2="356.909" gradientUnits="userSpaceOnUse">
<stop stop-color="#AAC76F"/>
<stop offset="1" stop-color="#609640"/>
</linearGradient>
<linearGradient id="paint29_linear_1306_582" x1="698.264" y1="372.609" x2="680.988" y2="381.467" gradientUnits="userSpaceOnUse">
<stop stop-color="#AAC76F"/>
<stop offset="1" stop-color="#609640"/>
</linearGradient>
<linearGradient id="paint30_linear_1306_582" x1="788.899" y1="334.199" x2="782.91" y2="326.399" gradientUnits="userSpaceOnUse">
<stop stop-color="#C98348"/>
<stop offset="1" stop-color="#DD9127"/>
</linearGradient>
<linearGradient id="paint31_linear_1306_582" x1="783.432" y1="306.026" x2="784.227" y2="297.31" gradientUnits="userSpaceOnUse">
<stop stop-color="#F7B381"/>
<stop offset="1" stop-color="#FCD7BA"/>
</linearGradient>
<linearGradient id="paint32_linear_1306_582" x1="747.114" y1="314.311" x2="762.99" y2="306.174" gradientUnits="userSpaceOnUse">
<stop stop-color="#F7B381"/>
<stop offset="1" stop-color="#FCD7BA"/>
</linearGradient>
<linearGradient id="paint33_linear_1306_582" x1="801.596" y1="365.407" x2="775.799" y2="389.208" gradientUnits="userSpaceOnUse">
<stop stop-color="#F7B381"/>
<stop offset="1" stop-color="#FCD7BA"/>
</linearGradient>
<linearGradient id="paint34_linear_1306_582" x1="650.263" y1="427.573" x2="657.327" y2="441.375" gradientUnits="userSpaceOnUse">
<stop stop-color="#E8E8EB"/>
<stop offset="1" stop-color="#D3D3D3"/>
</linearGradient>
<linearGradient id="paint35_linear_1306_582" x1="717.375" y1="421.733" x2="753.985" y2="467.053" gradientUnits="userSpaceOnUse">
<stop stop-color="#E8E8EB"/>
<stop offset="1" stop-color="#D3D3D3"/>
</linearGradient>
<linearGradient id="paint36_linear_1306_582" x1="772.226" y1="439.535" x2="699.42" y2="431.633" gradientUnits="userSpaceOnUse">
<stop stop-color="#E8E8EB"/>
<stop offset="1" stop-color="#D3D3D3"/>
</linearGradient>
<linearGradient id="paint37_linear_1306_582" x1="732.192" y1="450.695" x2="740.019" y2="426.666" gradientUnits="userSpaceOnUse">
<stop stop-color="#E8E8EB"/>
<stop offset="1" stop-color="#D3D3D3"/>
</linearGradient>
<linearGradient id="paint38_linear_1306_582" x1="753.336" y1="435.875" x2="756.198" y2="448.635" gradientUnits="userSpaceOnUse">
<stop stop-color="#AAC76F"/>
<stop offset="1" stop-color="#609640"/>
</linearGradient>
<linearGradient id="paint39_linear_1306_582" x1="472.558" y1="76.3153" x2="483.949" y2="39.4345" gradientUnits="userSpaceOnUse">
<stop stop-color="white"/>
<stop offset="1" stop-color="#DDF1F3"/>
</linearGradient>
<linearGradient id="paint40_linear_1306_582" x1="742.6" y1="417.862" x2="739.412" y2="404.514" gradientUnits="userSpaceOnUse">
<stop stop-color="#C98348"/>
<stop offset="1" stop-color="#DD9127"/>
</linearGradient>
<linearGradient id="paint41_linear_1306_582" x1="734.346" y1="245.453" x2="740.748" y2="257.812" gradientUnits="userSpaceOnUse">
<stop stop-color="#E94E4E"/>
<stop offset="1" stop-color="#D33332"/>
</linearGradient>
<linearGradient id="paint42_linear_1306_582" x1="743.167" y1="368.864" x2="735.937" y2="338.172" gradientUnits="userSpaceOnUse">
<stop stop-color="#51823B"/>
<stop offset="1" stop-color="#AAC76F"/>
</linearGradient>
<linearGradient id="paint43_linear_1306_582" x1="706.438" y1="415.105" x2="707.719" y2="420.959" gradientUnits="userSpaceOnUse">
<stop stop-color="#E94E4E"/>
<stop offset="1" stop-color="#D33332"/>
</linearGradient>
</defs>
</svg>
